<svg width="0" height="0" class="hidden">
  <symbol xmlns="http://www.w3.org/2000/svg" viewBox="0 -960 960 960" id="gym">
    <path d="m776-585-21.231-21.231 26.539-26.538Q789-640.462 789-650.077t-7.692-17.308L667.385-781.308Q659.692-789 650.077-789t-17.308 7.692l-26.538 26.539L584-777l22.308-23.308q17.615-17.615 43.154-17.115 25.538.5 43.154 18.115l106.692 106.692q17.615 17.616 17.615 42.654 0 25.039-17.615 42.654L776-585ZM353.692-161.692q-17.615 17.615-42.654 17.615-25.038 0-42.654-17.615L158.461-271.615q-16.231-16.609-16.231-39.612 0-23.004 16.231-39.234L184-376l22.231 21.231-25.77 26.538q-7.692 7.693-7.692 17.308t7.692 17.308l113.154 113.154q7.693 7.692 17.308 7.692t17.308-7.692l26.538-25.77L376-184l-22.308 22.308ZM743-421.231l58.077-58.077Q808.769-487 808.769-497t-7.692-17.692L514.692-801.077Q507-808.769 497-808.769t-17.692 7.692L421.231-743q-7.693 7.692-7.693 17.308 0 9.615 7.693 17.307l287.154 287.154q7.692 7.693 17.307 7.693 9.616 0 17.308-7.693ZM480.692-158.923l59.077-58.308q7.693-7.692 7.693-17.307 0-9.616-7.693-17.308L251.846-539.769q-7.692-7.693-17.308-7.693-9.615 0-17.307 7.693l-58.308 59.077Q151.231-473 151.231-463t7.692 17.692l286.385 286.385Q453-151.231 463-151.231t17.692-7.692Zm-21-217.231 124.385-125.154-82.769-82.769-125.154 124.385 83.538 83.538Zm42.231 239.231q-16.165 16.231-38.89 16.231t-38.187-16.231L136.923-424.846q-16.231-15.396-16.231-38.121t16.231-38.956L195-561q16.608-16.231 39.612-16.231 23.003 0 39.234 16.231l80.077 80.077 125.384-125.385-80.076-80.846Q383-702.55 383-725.659q0-23.11 16.231-39.341l58.846-59.077q16.608-16.231 39.612-16.231 23.003 0 39.234 16.231l287.154 287.154q16.231 16.608 16.231 39.612 0 23.003-16.231 39.234L765-399.231Q748.835-383 725.725-383t-38.571-16.231l-80.846-80.076-125.385 125.384L561-273.846q16.231 16.608 16.231 39.612 0 23.003-16.231 39.234l-59.077 58.077Z"></path>
  </symbol>
  <symbol xmlns="http://www.w3.org/2000/svg" viewBox="0 -960 960 960" id="music">
    <path d="M175.384-120q-23.057 0-39.221-16.163Q120-152.327 120-175.384v-444.847q0-25.846 17.692-45.808Q155.384-686 180-695.539l411.385-166.154L601.923-834 219.847-680h564.769q23.057 0 39.221 16.163Q840-647.673 840-624.616v449.232q0 23.057-16.163 39.221Q807.673-120 784.616-120H175.384Zm0-30.769h609.232q9.23 0 16.923-7.692 7.692-7.693 7.692-16.923v-287.693H150.769v287.693q0 9.23 7.692 16.923 7.693 7.692 16.923 7.692Zm138.501-75.308q34.577 0 58.73-24.423 24.154-24.424 24.154-59 0-34.577-24.423-58.731-24.424-24.154-59-24.154-34.577 0-58.731 24.424-24.154 24.424-24.154 59t24.424 58.73q24.424 24.154 59 24.154ZM150.769-493.846h518.462v-64.616H700v64.616h109.231v-130.77q0-9.23-7.692-16.923-7.693-7.692-16.923-7.692H175.384q-9.23 0-16.923 7.692-7.692 7.693-7.692 16.923v130.77Zm0 343.077v-312.308 312.308Z"></path>
  </symbol>
  <symbol xmlns="http://www.w3.org/2000/svg" viewBox="0 -960 960 960" id="alarm">
    <path d="M479.564-121.231q-65.744 0-124.116-24.923-58.371-24.923-101.871-68.038-43.5-43.116-68.539-101.43Q160-373.937 160-440.348q0-66.412 25.038-124.494 25.039-58.081 68.539-101.697 43.5-43.615 101.871-68.538Q413.82-760 479.564-760T603.5-735.077q58.192 24.923 101.808 68.538 43.615 43.616 68.538 101.754 24.923 58.139 24.923 124.616T773.846-315.5q-24.923 58.192-68.538 101.308-43.616 43.115-101.808 68.038-58.192 24.923-123.936 24.923Zm.205-318.538Zm129.462 151 22-22L496.615-445.03V-640h-30.769v207.077l143.385 144.154ZM231.692-823.154l22 21.231-136.308 134.154-22-22 136.308-133.385Zm495.385 0 137.077 133.385-22 22-136.308-134.154 21.231-21.231ZM479.504-152q119.881 0 204.188-84.293Q768-320.586 768-440.274q0-120.009-84.293-204.483t-203.981-84.474q-120.009 0-204.483 84.427t-84.474 204.308q0 119.881 84.427 204.188Q359.623-152 479.504-152Z"></path>
  </symbol>
  <symbol xmlns="http://www.w3.org/2000/svg" viewBox="0 -960 960 960" id="vital">
    <path d="M378.467-243.846q-9.159 0-16.764-5.597-7.605-5.598-10.319-14.095l-85.461-201.077h-181v-30.77h203L378.385-279l176.23-417.769q2.682-7.728 10.221-13.326 7.538-5.598 16.697-5.598 9.159 0 16.764 5.598 7.605 5.598 10.319 13.326l87 201.384h181v30.77h-203l-92.001-216.693-176.23 417.77q-2.682 8.497-10.221 14.095-7.538 5.597-16.697 5.597Z"></path>
  </symbol>
  <symbol xmlns="http://www.w3.org/2000/svg" viewBox="0 -960 960 960" id="relax">
    <path d="M493.846-121.538q-62.16-7.187-123.58-33.786t-111.497-75.714q-50.077-49.116-83.269-123.154-33.193-74.039-38.577-175.798l-1.539-31.472 29.539 1.539q43 2.307 103.384 24.346 60.385 22.038 99.462 54.038 3.385-76.923 34.151-162.568 30.767-85.646 78.08-144.894 47.313 59.248 78.08 145.663Q588.846-556.923 592.231-480q36.769-28.462 95.615-53.039 58.847-24.577 105.693-26.884l31.077-1.539-1.539 33.011q-3.077 80.22-26.269 146.182-23.192 65.962-64.423 117-41.231 51.039-101.193 86.846-59.961 35.808-137.346 56.885Zm4.154-31q-11-175.231-102.539-265.221-91.538-89.99-227.538-111.164 11.461 180.692 106.397 270.104Q369.255-169.407 498-152.538Zm-18.231-197.308q12.462-27.539 35.423-57.539 22.962-30 45.962-50 2.692-66.461-20-137.231Q518.462-665.385 480-734.231q-38.462 68.846-61.154 139.615-22.692 70.77-20 137.231 23 20 44.577 50.385 21.577 30.384 36.346 57.154Zm49 184.923q51.616-18.538 97.731-46.923 46.115-28.385 81.308-71.462 35.192-43.077 58-103.577t26.269-142.038q-102.923 14.692-183.154 73.961-80.231 59.27-112.846 142.646 12 35.239 19.846 67.97t12.846 79.423Zm-49-184.923Zm49 184.923ZM498-152.538ZM496.077-312Zm-2.231 190.462Z"></path>
  </symbol>
  <symbol xmlns="http://www.w3.org/2000/svg" viewBox="0 -960 960 960" id="heartrate">
    <path d="M295.385-800q54.692 0 101.653 29.307Q444-741.385 480-685q38.923-57.846 84.769-86.423Q610.615-800 664.615-800 739-800 789.5-749.5T840-624.385q0 11.154-1.115 21.423-1.116 10.27-3.577 21.424h-31.231q1.923-11.154 3.538-21.424 1.616-10.269 1.616-21.423 0-62.154-41.231-103.5t-103.385-41.346q-50.23 0-92.307 29.577-42.077 29.577-79.077 91.962h-26.693Q429-709.846 386.923-739.539q-42.077-29.692-91.538-29.692-61.385 0-103 41.346-41.616 41.346-41.616 103.5 0 11.154 1.616 21.423 1.615 10.27 3.538 21.424h-31.231q-2.461-11.154-3.577-21.424Q120-613.231 120-624.385 120-699 170.5-749.5T295.385-800Zm-40.308 421.538h40.307q34.924 36.616 80.654 79.962Q421.769-255.154 480-201.385q58.231-53.769 103.846-96.73 45.616-42.962 80.539-80.347h40.538q-37.384 40.539-87 88.501Q568.308-242 502.539-180.923L480-160.077l-22.539-20.846Q391.692-242 342.077-289.961q-49.616-47.962-87-88.501ZM442-344.615q4.385 0 7.539-2.808 3.153-2.808 4.615-7.192l70.231-209.462 58.307 87.231q5 6 10.616 9.115 5.615 3.116 12.846 3.116h289.231v-30.77H607l-75.077-112.154q-2.692-3.923-6.231-5.384-3.538-1.462-7.692-1.462-4.385 0-8.039 2.808-3.653 2.808-4.346 7.192l-70 211-60.846-90.538q-4.23-5.231-9.73-8.346-5.5-3.116-12.731-3.116H64.615v30.77h286.616l75.077 113.154q2.692 4.692 7.115 5.769t8.577 1.077Zm38-140.693Z"></path>
  </symbol>
  <symbol xmlns="http://www.w3.org/2000/svg" height="48" viewBox="0 -960 960 960" id="water">
    <path d="M482.846-215.692q10.616-.769 16.039-4.463 5.423-3.693 5.423-11.035 0-6.733-5.64-10.041-5.639-3.308-16.053-3.308-41.23 1.539-90.884-27.269-49.654-28.807-61.654-95.807-1.231-9-5.474-12.962-4.244-3.962-9.808-3.962-6.641 0-10.718 5.039-4.077 5.038-2.846 14.038 15 80.924 73.307 115.731 58.308 34.808 108.308 34.039ZM479.859-120q-119.936 0-199.898-82.536Q200-285.073 200-408q0-86.154 69.5-190.577T480-827.693Q621-703 690.5-598.577 760-494.154 760-408q0 122.927-80.103 205.464Q599.794-120 479.859-120Zm.177-30.769q107.349 0 178.272-73.459 70.923-73.459 70.923-183.844 0-75.851-63.423-171.736Q602.385-675.692 480-786.154 357.615-675.692 294.192-579.808q-63.423 95.885-63.423 171.736 0 110.385 70.959 183.844 70.959 73.459 178.308 73.459ZM480-473.846Z"/>
  </symbol>
  <symbol xmlns="http://www.w3.org/2000/svg" height="48" viewBox="0 -960 960 960" id="battery">
    <path d="M663.077-206.154h-29.923q-8.622 0-12.158-6.731-3.535-6.73-.073-13.951l62.879-122.555q2.89-4.84 8.006-3.725 5.115 1.116 5.115 7.308v71.962h29.923q8.622 0 12.158 6.731 3.535 6.73.073 13.951l-62.879 122.785q-2.89 4.841-8.006 3.853-5.115-.987-5.115-6.666v-72.962Zm-316.923 55.385ZM343.077-120q-11.77 0-19.731-7.961-7.962-7.962-7.962-19.731v-612.924q0-11.019 7.962-19.355 7.961-8.337 19.731-8.337h69.231v-24q0-11.769 7.961-19.731Q428.231-840 440-840h80q11.769 0 19.731 7.961 7.961 7.962 7.961 19.731v24h69.39q11.803 0 19.668 8.337 7.866 8.336 7.866 19.355v300.693q-8.308 1.538-16.001 2.769-7.692 1.231-14.769 3.923v-305.077H346.154v607.539h128.923q4.955 8.831 10.132 16.377 5.176 7.546 10.714 14.392H343.077Z"/>
  </symbol>
  <symbol xmlns="http://www.w3.org/2000/svg" height="48" viewBox="0 -960 960 960" id="gps">
    <path d="M214.847-377.23q-9.923-9.538-10.423-23.422-.5-13.885 10.039-23.192 58.384-52.308 124.307-78.846 65.923-26.539 141.23-26.539 75.307 0 141.23 26.539 65.923 26.538 124.307 78.846 10.154 8.923 10.154 22.499 0 13.577-10.538 24.115-9.923 9.923-23.307 9.923-13.385 0-23.153-9.308-51.693-44.23-106.347-64.769Q537.693-461.922 480-461.922q-57.693 0-112.346 20.538Q313-420.845 261.307-376.615q-10.153 8.923-23.345 9.116-13.192.192-23.115-9.731ZM45.462-546.615q-9.922-9.538-10.23-23.922-.308-14.384 10.23-23.307 87.154-80.077 198-127.731Q354.308-769.229 480-769.229q125.692 0 236.538 47.654 110.846 47.654 197.999 127.731 10.539 8.923 10.539 22.999 0 14.077-10.539 24.23-9.922 9.923-23.614 9.731-13.692-.192-23.846-9.115-81.846-72.539-179.192-114.231Q590.539-701.922 480-701.922q-110.539 0-207.885 41.692-97.346 41.692-179.192 114.231-10.154 8.923-23.846 9.115-13.692.192-23.614-9.731ZM480-132q-30.615 0-53.192-22.577-22.576-22.577-22.576-53.192t22.576-53.191q22.577-22.577 53.192-22.577t53.192 22.577q22.576 22.576 22.576 53.191 0 30.615-22.576 53.192Q510.615-132 480-132Z"/>
  </symbol>
  <symbol xmlns="http://www.w3.org/2000/svg" height="48" viewBox="0 -960 960 960" id="wear">
    <path d="M167.692-753.846h338.462v-30.77q0-9.23-7.692-16.923-7.693-7.692-16.923-7.692H192.307q-9.23 0-16.923 7.692-7.692 7.693-7.692 16.923v30.77ZM192.307-120q-23.057 0-39.221-16.163-16.163-16.164-16.163-39.221v-609.232q0-23.057 16.163-39.221Q169.25-840 192.307-840h289.232q23.057 0 39.221 16.163 16.163 16.164 16.163 39.221v157.077q-8.332 4.526-15.627 9.571-7.296 5.045-15.142 10.122v-115.231H167.692v486.154h270q5.385 8.538 11.654 16.115 6.269 7.577 13.346 14.31h-295v31.114q0 9.23 7.692 16.923 7.693 7.692 16.923 7.692h324.616v-3.693q2.231 1.001 4.577 2.539 2.346 1.539 5.039 2.616-7 12.923-19.693 21.115Q494.154-120 477.692-120H192.307Zm484.414-110.769q64.664 0 109.356-44.49 44.692-44.491 44.692-109.154 0-64.664-44.49-109.356-44.49-44.693-109.154-44.693-64.663 0-109.356 44.491-44.692 44.49-44.692 109.154 0 64.663 44.49 109.356 44.491 44.692 109.154 44.692ZM633.846-120q-11.961 0-19.827-7.865-7.865-7.866-7.865-19.827v-65.769Q555.692-235.154 524-280.538q-31.692-45.385-31.692-104.077 0-58.693 31.692-104.077 31.692-45.385 82.154-67.077v-65.77q0-11.961 7.865-19.827 7.866-7.865 19.827-7.865H720q11.962 0 19.827 7.865 7.866 7.866 7.866 19.827v65.77q50.461 21.692 82.153 67.077 31.693 45.384 31.693 104.077 0 58.692-31.693 104.077-31.692 45.384-82.153 67.077v65.769q0 11.961-7.866 19.827Q731.962-120 720-120h-86.154Zm-466.154-86.154v55.385-55.385Zm0-547.692v-55.385 55.385Z"/>
  </symbol>
</svg>